<mxfile host="Electron" modified="2025-01-24T15:13:59.815Z" agent="Mozilla/5.0 (X11; Linux x86_64) AppleWebKit/537.36 (KHTML, like Gecko) draw.io/24.0.4 Chrome/120.0.6099.109 Electron/28.1.0 Safari/537.36" etag="IzOMuMpamHjCR9Ej3nsf" version="24.0.4" type="device">
  <diagram name="Page-1" id="rN86RhkOwYOjtEiRV4lg">
    <mxGraphModel dx="1434" dy="873" grid="1" gridSize="10" guides="1" tooltips="1" connect="1" arrows="1" fold="1" page="1" pageScale="1" pageWidth="1169" pageHeight="827" math="0" shadow="0">
      <root>
        <mxCell id="0" />
        <mxCell id="1" parent="0" />
        <mxCell id="KcyWepBMY_qYQqV-em-a-1" value="Field" style="rounded=0;whiteSpace=wrap;html=1;" vertex="1" parent="1">
          <mxGeometry x="460" y="110" width="120" height="60" as="geometry" />
        </mxCell>
        <mxCell id="KcyWepBMY_qYQqV-em-a-8" style="edgeStyle=orthogonalEdgeStyle;rounded=0;orthogonalLoop=1;jettySize=auto;html=1;exitX=0.5;exitY=0;exitDx=0;exitDy=0;entryX=0.25;entryY=1;entryDx=0;entryDy=0;" edge="1" parent="1" source="KcyWepBMY_qYQqV-em-a-2" target="KcyWepBMY_qYQqV-em-a-1">
          <mxGeometry relative="1" as="geometry" />
        </mxCell>
        <mxCell id="KcyWepBMY_qYQqV-em-a-2" value="ContainerField" style="rounded=0;whiteSpace=wrap;html=1;" vertex="1" parent="1">
          <mxGeometry x="380" y="210" width="120" height="60" as="geometry" />
        </mxCell>
        <mxCell id="KcyWepBMY_qYQqV-em-a-9" style="edgeStyle=orthogonalEdgeStyle;rounded=0;orthogonalLoop=1;jettySize=auto;html=1;exitX=0.25;exitY=0;exitDx=0;exitDy=0;" edge="1" parent="1" source="KcyWepBMY_qYQqV-em-a-3" target="KcyWepBMY_qYQqV-em-a-1">
          <mxGeometry relative="1" as="geometry" />
        </mxCell>
        <mxCell id="KcyWepBMY_qYQqV-em-a-3" value="ControlField" style="rounded=0;whiteSpace=wrap;html=1;" vertex="1" parent="1">
          <mxGeometry x="550" y="210" width="120" height="60" as="geometry" />
        </mxCell>
        <mxCell id="KcyWepBMY_qYQqV-em-a-6" value="" style="group" vertex="1" connectable="0" parent="1">
          <mxGeometry x="110" y="310" width="340" height="60" as="geometry" />
        </mxCell>
        <mxCell id="KcyWepBMY_qYQqV-em-a-4" value="ObjectField" style="rounded=0;whiteSpace=wrap;html=1;" vertex="1" parent="KcyWepBMY_qYQqV-em-a-6">
          <mxGeometry x="220" width="120" height="60" as="geometry" />
        </mxCell>
        <mxCell id="KcyWepBMY_qYQqV-em-a-5" value="&lt;i&gt;getChildDependencies&lt;/i&gt;&lt;div&gt;&lt;i&gt;getChildConditional&lt;/i&gt;&lt;i style=&quot;background-color: initial;&quot;&gt;Dependencies&lt;/i&gt;&lt;/div&gt;" style="text;html=1;align=left;verticalAlign=top;whiteSpace=wrap;rounded=0;spacingLeft=5;" vertex="1" parent="KcyWepBMY_qYQqV-em-a-6">
          <mxGeometry width="210" height="40" as="geometry" />
        </mxCell>
        <mxCell id="KcyWepBMY_qYQqV-em-a-7" style="edgeStyle=orthogonalEdgeStyle;rounded=0;orthogonalLoop=1;jettySize=auto;html=1;exitX=0.5;exitY=0;exitDx=0;exitDy=0;" edge="1" parent="1" source="KcyWepBMY_qYQqV-em-a-4" target="KcyWepBMY_qYQqV-em-a-2">
          <mxGeometry relative="1" as="geometry" />
        </mxCell>
        <mxCell id="KcyWepBMY_qYQqV-em-a-11" value="UploadField" style="rounded=0;whiteSpace=wrap;html=1;" vertex="1" parent="1">
          <mxGeometry x="510" y="330" width="120" height="60" as="geometry" />
        </mxCell>
        <mxCell id="KcyWepBMY_qYQqV-em-a-12" value="ListField" style="rounded=0;whiteSpace=wrap;html=1;" vertex="1" parent="1">
          <mxGeometry x="1034" y="330" width="120" height="60" as="geometry" />
        </mxCell>
        <mxCell id="KcyWepBMY_qYQqV-em-a-13" value="AnyField" style="rounded=0;whiteSpace=wrap;html=1;" vertex="1" parent="1">
          <mxGeometry x="903" y="330" width="120" height="60" as="geometry" />
        </mxCell>
        <mxCell id="KcyWepBMY_qYQqV-em-a-14" value="HiddenField" style="rounded=0;whiteSpace=wrap;html=1;" vertex="1" parent="1">
          <mxGeometry x="641" y="330" width="120" height="60" as="geometry" />
        </mxCell>
        <mxCell id="KcyWepBMY_qYQqV-em-a-15" value="TextField" style="rounded=0;whiteSpace=wrap;html=1;" vertex="1" parent="1">
          <mxGeometry x="772" y="330" width="120" height="60" as="geometry" />
        </mxCell>
        <mxCell id="KcyWepBMY_qYQqV-em-a-18" style="edgeStyle=orthogonalEdgeStyle;rounded=0;orthogonalLoop=1;jettySize=auto;html=1;exitX=0.5;exitY=0;exitDx=0;exitDy=0;" edge="1" parent="1" source="KcyWepBMY_qYQqV-em-a-17" target="KcyWepBMY_qYQqV-em-a-3">
          <mxGeometry relative="1" as="geometry" />
        </mxCell>
        <mxCell id="KcyWepBMY_qYQqV-em-a-17" value="" style="rounded=0;whiteSpace=wrap;html=1;fillColor=none;" vertex="1" parent="1">
          <mxGeometry x="500" y="320" width="660" height="80" as="geometry" />
        </mxCell>
      </root>
    </mxGraphModel>
  </diagram>
</mxfile>
